#N canvas 299 0 923 626 10;
#X declare -lib mrpeach;
#X obj 45 23 import mrpeach;
#X obj 38 96 unpackOSC;
#X obj 38 63 udpreceive 8000;
#X floatatom 92 296 5 0 0 0 - - -;
#X obj 38 125 routeOSC /myo;
#X obj 38 162 routeOSC /orientation /gyro /accel;
#X floatatom 65 316 5 0 0 0 - - -;
#X floatatom 38 336 5 0 0 0 - - -;
#X floatatom 119 277 5 0 0 0 - - -;
#X floatatom 316 294 5 0 0 0 - - -;
#X obj 262 240 unpack s f f f;
#X floatatom 289 314 5 0 0 0 - - -;
#X floatatom 262 334 5 0 0 0 - - -;
#X floatatom 343 275 5 0 0 0 - - -;
#X floatatom 537 297 5 0 0 0 - - -;
#X obj 483 243 unpack s f f f;
#X floatatom 510 317 5 0 0 0 - - -;
#X floatatom 483 337 5 0 0 0 - - -;
#X floatatom 564 278 5 0 0 0 - - -;
#X obj 38 241 unpack s f f f;
#X msg 456 485 connect localhost 5000;
#X msg 540 512 disconnect;
#X obj 383 590 udpsend;
#X obj 382 498 packOSC;
#X msg 510 375 send /accel/1 \$1;
#X msg 537 355 send /accel/2 \$1;
#X msg 564 335 send /accel/3 \$1;
#X msg 342 351 send /gyro/3 \$1;
#X msg 315 371 send /gyro/2 \$1;
#X msg 288 391 send /gyro/1 \$1;
#X msg 119 355 send /orientation/3 \$1;
#X msg 92 375 send /orientation/2 \$1;
#X msg 65 395 send /orientation/1 \$1;
#X connect 1 0 4 0;
#X connect 2 0 1 0;
#X connect 3 0 31 0;
#X connect 4 0 5 0;
#X connect 5 0 19 0;
#X connect 5 1 10 0;
#X connect 5 2 15 0;
#X connect 6 0 32 0;
#X connect 8 0 30 0;
#X connect 9 0 28 0;
#X connect 10 0 12 0;
#X connect 10 1 11 0;
#X connect 10 2 9 0;
#X connect 10 3 13 0;
#X connect 11 0 29 0;
#X connect 13 0 27 0;
#X connect 14 0 25 0;
#X connect 15 0 17 0;
#X connect 15 1 16 0;
#X connect 15 2 14 0;
#X connect 15 3 18 0;
#X connect 16 0 24 0;
#X connect 18 0 26 0;
#X connect 19 0 7 0;
#X connect 19 1 6 0;
#X connect 19 2 3 0;
#X connect 19 3 8 0;
#X connect 20 0 22 0;
#X connect 21 0 22 0;
#X connect 23 0 22 0;
#X connect 24 0 23 0;
#X connect 25 0 23 0;
#X connect 26 0 23 0;
#X connect 27 0 23 0;
#X connect 28 0 23 0;
#X connect 29 0 23 0;
#X connect 30 0 23 0;
#X connect 31 0 23 0;
#X connect 32 0 23 0;
